<svg width="106" height="101" viewBox="0 0 106 101" fill="none" xmlns="http://www.w3.org/2000/svg">
<path d="M104.8 53.3243C103.959 62.4221 100.545 71.0922 94.9565 78.3202C89.368 85.5483 81.8366 91.0353 73.2435 94.1391C64.6504 97.243 55.3511 97.8354 46.4336 95.847C37.5161 93.8586 29.3493 89.3717 22.8888 82.9112C16.4283 76.4508 11.9414 68.284 9.95302 59.3665C7.96463 50.449 8.55703 41.1496 11.6609 32.5565C14.7648 23.9634 20.2518 16.432 27.4798 10.8436C34.7079 5.25511 43.378 1.84075 52.4757 1C47.1493 8.20605 44.5862 17.0845 45.2526 26.0206C45.919 34.9567 49.7706 43.3568 56.1069 49.6932C62.4432 56.0295 70.8433 59.8811 79.7794 60.5475C88.7155 61.2139 97.594 58.6508 104.8 53.3243Z" fill="#1A1A2E" stroke="black" stroke-width="2" stroke-linecap="round" stroke-linejoin="round"/>
</svg>
